<?xml version="1.0" encoding="utf-8" ?>
<svg baseProfile="full" height="200mm" version="1.1" viewBox="0,0,200,200" width="200mm" xmlns="http://www.w3.org/2000/svg" xmlns:ev="http://www.w3.org/2001/xml-events" xmlns:xlink="http://www.w3.org/1999/xlink"><defs /><rect fill="#1a1a1a" height="200" width="200" x="0" y="0" /><rect fill="#1a1a1a" height="200" width="180" x="10" y="0" /><text alignment-baseline="middle" fill="#e1ed5e" style="dominant-baseline: central; font-size:9.0px; font-family:Arial;" text-anchor="middle" x="100.0" y="100.0">2025</text><line stroke="#e1ed5e" stroke-width="0.3" x1="100.0" x2="100.0" y1="15.0" y2="10.0" /><path d="M 100.0 14.0 a86.0,86.0 0 0,1 42.46469731375804,11.215312516191453" fill="none" id="id37" stroke="none" /><text fill="#e1ed5e" style="font-size:6.75px; font-family:Arial;" text-anchor="middle"><textPath startOffset="22.20632615414155" xlink:href="#id37">January</textPath></text><line stroke="#e1ed5e" stroke-width="0.3" x1="143.23703022742887" x2="145.7803849466894" y1="26.81831364943548" y2="22.513508569990506" /><path d="M 143.74570117128098 25.957352633546492 a86.0,86.0 0 0,1 28.547481713284135,27.462654790039103" fill="none" id="id38" stroke="none" /><text fill="#e1ed5e" style="font-size:6.75px; font-family:Arial;" text-anchor="middle"><textPath startOffset="19.985693538727396" xlink:href="#id38">February</textPath></text><line stroke="#e1ed5e" stroke-width="0.3" x1="172.23445277983987" x2="176.4835382374775" y1="55.19839476539836" y2="52.563006222186495" /><path d="M 173.08426987136738 54.67131705675599 a86.0,86.0 0 0,1 12.851231095245387,41.99856678651699" fill="none" id="id39" stroke="none" /><text fill="#e1ed5e" style="font-size:6.75px; font-family:Arial;" text-anchor="middle"><textPath startOffset="22.20632615414155" xlink:href="#id39">March</textPath></text><line stroke="#e1ed5e" stroke-width="0.3" x1="184.98032266829074" x2="189.97916517819016" y1="98.17113171792111" y2="98.06355123074" /><path d="M 185.9800911702706 98.14961562048488 a86.0,86.0 0 0,1 -9.607161424134198,41.387399972396054" fill="none" id="id40" stroke="none" /><text fill="#e1ed5e" style="font-size:6.75px; font-family:Arial;" text-anchor="middle"><textPath startOffset="21.466115282336823" xlink:href="#id40">April</textPath></text><line stroke="#e1ed5e" stroke-width="0.3" x1="174.80103733775053" x2="179.2010983576182" y1="140.37084112569926" y2="142.7455964860345" /><path d="M 175.68104954172406 140.8457921977663 a86.0,86.0 0 0,1 -30.038265399797805,32.042727171017184" fill="none" id="id41" stroke="none" /><text fill="#e1ed5e" style="font-size:6.75px; font-family:Arial;" text-anchor="middle"><textPath startOffset="22.206326154141568" xlink:href="#id41">May</textPath></text><line stroke="#e1ed5e" stroke-width="0.3" x1="143.8653032363475" x2="146.44561519142675" y1="172.8068346515853" y2="177.08958963109032" /><path d="M 144.38136562736335 173.6633856474863 a86.0,86.0 0 0,1 -40.68145358897372,12.25698825130547" fill="none" id="id42" stroke="none" /><text fill="#e1ed5e" style="font-size:6.75px; font-family:Arial;" text-anchor="middle"><textPath startOffset="21.466115282336833" xlink:href="#id42">June</textPath></text><path d="M 105.53697534728816 120.25689768951611 l 4.057739440298985 14.845146950691879 a36.38972505774532,36.38972505774532 0 0,0 -0.6056455567211393,0.1599564961568586 l -3.8016034407663475 -14.91279479615232" fill="red" stroke="none" /><path d="M 104.83641907484287 120.43548508189849 l 7.785712183648671 32.89723299796494 a54.80599433723269,54.80599433723269 0 0,0 -0.919905176017306,0.20936742310741607 l -7.2182868582385025 -33.02637715465004" fill="red" stroke="none" /><path d="M 104.13013068566511 120.58985236759428 l 10.808472916121952 53.88324936896132 a75.95659786901126,75.95659786901126 0 0,0 -1.2841453395453746,0.24610951061553818 l -9.879359962004873 -54.06131607792533" fill="red" stroke="none" /><path d="M 102.70371172650421 120.8252237178851 l 7.159039241547888 55.142192989309116 a76.60497541166828,76.60497541166828 0 0,0 -1.309115473003383,0.15851565254864466 l -6.208796345493125 -55.25725417058311" fill="red" stroke="none" /><path d="M 101.98527174616119 120.90594882070398 l 5.955815238483573 62.71784646211194 a84.0,84.0 0 0,0 -1.4406227290338331,0.12430299088534635 l -4.8753481917081976 -62.81107370527595" fill="red" stroke="none" /><line stroke="#e1ed5e" stroke-width="0.3" x1="102.19456741930631" x2="102.32365962044197" y1="184.97166512339345" y2="189.96999836594603" /><path d="M 102.22038585953345 185.97133177190398 a86.0,86.0 0 0,1 -42.740103519485714,-10.115201625700543" fill="none" id="id43" stroke="none" /><text fill="#e1ed5e" style="font-size:6.75px; font-family:Arial;" text-anchor="middle"><textPath startOffset="22.20632615414155" xlink:href="#id43">July</textPath></text><path d="M 100.18074693466247 120.99922214144158 l 0.4054887317650267 47.10977793391917 a68.11152298636466,68.11152298636466 0 0,0 -1.1724713328549319,0.0 l 0.4054887317649943 -47.10977793391917" fill="red" stroke="none" /><path d="M 99.81925306533755 120.99922214144158 l -0.1299190138828556 15.094022136630596 a36.09458125325982,36.09458125325982 0 0,0 -0.6212398400653583,-0.010695207235601287 l 0.3897185438408817 -15.089549452115834" fill="red" stroke="none" /><path d="M 99.45781275523022 120.99299961872073 l -1.1427956600441949 44.24801410769127 a65.26276916772223,65.26276916772223 0 0,0 -1.1227671568406492,-0.03867037104882282 l 1.9042831685594872 -44.221786938216354" fill="red" stroke="none" /><path d="M 99.09653310690486 120.98055641714683 l -0.6472316054708914 15.03019016781241 a36.044119290663886,36.044119290663886 0 0,0 -0.6196360536884379,-0.03202810624047783 l 0.9058557275728182 -15.01682225480973" fill="red" stroke="none" /><path d="M 98.73552117531835 120.96189622390904 l -2.3493104547457766 38.9456912910534 a60.01648535876611,60.01648535876611 0 0,0 -1.0306752184541512,-0.0710813974850784 l 3.019348433978858 -38.899481549052034" fill="red" stroke="none" /><path d="M 98.01472825383883 120.90594882070398 l -1.174100154028597 12.363888106484813 a33.419510468668506,33.419510468668506 0 0,0 -0.572217457234825,-0.05931267909840908 l 1.3867502078690153 -12.341846058930644" fill="red" stroke="none" /><path d="M 97.2962882734958 120.8252237178851 l -1.8158795573163695 13.986734478805714 a35.104118545562926,35.104118545562926 0 0,0 -0.5985610087025813,-0.08295510170584126 l 2.056369157205782 -13.953404811607268" fill="red" stroke="none" /><path d="M 96.93821686468263 120.77559828337769 l -2.053888202612489 13.936570400510348 a35.08710230236197,35.08710230236197 0 0,0 -0.596754980585844,-0.09320085508147681 l 2.2934790468068504 -13.899151238081766" fill="red" stroke="none" /><path d="M 96.58105272829116 120.7198165907248 l -4.240089449038741 25.69617742845132 a47.043653602563154,47.043653602563154 0 0,0 -0.7978402674412128,-0.13871475726838567 l 4.681778687952003 -25.619384092661928" fill="red" stroke="none" /><path d="M 95.86986931433489 120.58985236759428 l -6.220699685495974 31.011921388360665 a52.629675508531406,52.629675508531406 0 0,0 -0.8867061227199567,-0.185817889298116 l 6.753597269645318 -30.90024751833601" fill="red" stroke="none" /><path d="M 94.81253420990036 120.34920634021253 l -2.908600588907202 11.409754963183953 a32.77465352805305,32.77465352805305 0 0,0 -0.5454787924569849,-0.144065906867485 l 3.1045698241756763 -11.357997707012887" fill="red" stroke="none" /><path d="M 94.46302465271185 120.25689768951611 l -13.974973449832504 51.12712078908029 a74.00266373593622,74.00266373593622 0 0,0 -1.2258676281412944,-0.34644243657350177 l 14.852972246078412 -50.87898955916826" fill="red" stroke="none" /><path d="M 94.11515582081647 120.15858648285463 l -9.28043566443779 31.79021555097373 a54.11712987109754,54.11712987109754 0 0,0 -0.8919663314216272,-0.26874213874594854 l 9.826276970299665 -31.625758043122055" fill="red" stroke="none" /><path d="M 93.42475214034765 119.94407469862007 l -8.70745116724415 26.411484436920638 a48.809822293420766,48.809822293420766 0 0,0 -0.7956704524282514,-0.26993461767577587 l 9.160791352609627 -26.25768683234674" fill="red" stroke="none" /><path d="M 92.40401165467489 119.57807347666478 l -3.7717469511802197 9.721386551499789 a31.427436480143058,31.427436480143058 0 0,0 -0.5026577879863479,-0.20001790751423904 l 3.938525815208426 -9.655021799579483" fill="red" stroke="none" /><path d="M 92.06813273071674 119.44442032107085 l -15.475740286105117 37.937699747962206 a61.972766559868866,61.972766559868866 0 0,0 -0.9842707800770256,-0.41142526589892203 l 16.126482525679606 -37.66568943904331" fill="red" stroke="none" /><path d="M 91.7346041902142 119.30500536409082 l -12.98839115031536 30.33623151245626 a53.99977646971165,53.99977646971165 0 0,0 -0.8513433124868953,-0.37320388952053946 l 13.508655137459998 -30.108163069641268" fill="red" stroke="none" /><path d="M 91.40352486487194 119.15986991738527 l -21.618171758209016 48.18269723673282 a73.81020415766338,73.81020415766338 0 0,0 -1.1547149668920524,-0.5300730061074904 l 22.444354720868485 -47.80343716029126" fill="red" stroke="none" /><path d="M 90.7491055286396 118.85261126421891 l -14.750268972361805 30.059913432102274 a54.48385925042844,54.48385925042844 0 0,0 -0.8383926767208777,-0.4203874928543149 l 15.265515556765443 -29.801558098338656" fill="red" stroke="none" /><line stroke="#e1ed5e" stroke-width="0.3" x1="58.666819895761336" x2="56.23545636021788" y1="174.27360380694188" y2="178.64263932499728" /><path d="M 58.180547188652646 175.14741091055294 a86.0,86.0 0 0,1 -31.652253787137756,-30.449443065178592" fill="none" id="id44" stroke="none" /><text fill="#e1ed5e" style="font-size:6.75px; font-family:Arial;" text-anchor="middle"><textPath startOffset="22.20632615414155" xlink:href="#id44">August</textPath></text><path d="M 89.7882731507175 118.34994917583269 l -16.168726027353337 29.054371040167776 a54.250325981670514,54.250325981670514 0 0,0 -0.8120788984411712,-0.4611195924922547 l 16.666453692715717 -28.77174828188089" fill="red" stroke="none" /><path d="M 89.1626897886671 117.98757091392108 l -11.451910295872118 19.007672986185305 a43.19094143506445,43.19094143506445 0 0,0 -0.6335099207859691,-0.38915353562163213 l 11.777399416590395 -18.807730983735294" fill="red" stroke="none" /><path d="M 88.8546689885994 117.79835938074946 l -6.693551470430049 10.68916073308143 a33.611970046941366,33.611970046941366 0 0,0 -0.48772280677889324,-0.31128777109221795 l 6.876556079255866 -10.572358533165406" fill="red" stroke="none" /><path d="M 88.54995079064634 117.60387380957326 l -33.94063837983139 52.182021590511354 a83.24893823113031,83.24893823113031 0 0,0 -1.1945243520035074,-0.7916656050858724 l 34.83383743057486 -51.590057964334164" fill="red" stroke="none" /><path d="M 88.24862548938628 117.40417183066458 l -15.328950498137278 22.702679436552117 a48.39321771850086,48.39321771850086 0 0,0 -0.686361272781002,-0.47208554199499464 l 15.71746865554117 -22.43545310519202" fill="red" stroke="none" /><line stroke="#e1ed5e" stroke-width="0.3" x1="26.63291911575756" x2="22.317208475507996" y1="142.92168965132927" y2="145.44649492493687" /><path d="M 25.769776987707644 143.4266507060508 a86.0,86.0 0 0,1 -11.730757126820373,-40.83630448921669" fill="none" id="id45" stroke="none" /><text fill="#e1ed5e" style="font-size:6.75px; font-family:Arial;" text-anchor="middle"><textPath startOffset="21.46611528233685" xlink:href="#id45">September</textPath></text><path d="M 80.32549172779594 107.34259656027581 l -6.329603464146418 2.36223055645115 a27.75603531778556,27.75603531778556 0 0,0 -0.16319985582993635,-0.4490559116949363 l 6.369327580981579 -2.2529268477500968" fill="red" stroke="none" /><path d="M 80.20201598880116 107.00284435728193 l -6.175714183956777 2.1844428806915124 a27.550666865360256,27.550666865360256 0 0,0 -0.1542957636664261,-0.44845571346063673 l 6.212400778566432 -2.077814464141579" fill="red" stroke="none" /><path d="M 79.86692584326677 105.97154293290107 l -10.269240427254815 3.0458940160972303 a31.711431711496907,31.711431711496907 0 0,0 -0.15071592284242313,-0.5246618994860046 l 10.320148986983343 -2.8686746411066295" fill="red" stroke="none" /><path d="M 79.76711848015287 105.62410040840567 l -15.054810601115662 4.184760651474639 a36.62560539453096,36.62560539453096 0 0,0 -0.16361516653371502,-0.6088729010078882 l 15.12461384399115 -3.9249968172912126" fill="red" stroke="none" /><path d="M 79.67330655649465 105.27499134158121 l -30.283304925332644 7.858837037099793 a52.286416809477686,52.286416809477686 0 0,0 -0.2185788481868955,-0.8731138453689556 l 30.414095087814598 -7.3363953523334455" fill="red" stroke="none" /><path d="M 79.58551787078972 104.9243191809786 l -20.349265608735664 4.908587850609445 a41.93291297220773,41.93291297220773 0 0,0 -0.16321774167769248,-0.7031377593423285 l 20.43074391634391 -4.557581433918543" fill="red" stroke="none" /><path d="M 79.50377843672027 104.57218783832718 l -33.72805135835062 7.523873888414818 a55.55705610610237,55.55705610610237 0 0,0 -0.2001799074242102,-0.9351738841632392 l 33.85256530449927 -6.942186184835415" fill="red" stroke="none" /><path d="M 79.4281124754447 104.21870165774334 l -33.97729798815256 6.967765265932121 a55.68438454660607,55.68438454660607 0 0,0 -0.18447458881505463,-0.9406319540275146 l 34.09220250994328 -6.381869584836651" fill="red" stroke="none" /><path d="M 79.29508885075956 103.50808413554451 l -21.315058855039155 3.6114629654087413 a42.61884360330825,42.61884360330825 0 0,0 -0.11632558792819783,-0.7243595470703444 l 21.374066197328645 -3.244024188645183" fill="red" stroke="none" /><path d="M 79.23777060512086 103.15116336523772 l -21.075302651252645 3.198679696810631 a42.31665859473959,42.31665859473959 0 0,0 -0.10310342832411633,-0.7211051375612887 l 21.12724013059336 -2.835429087268942" fill="red" stroke="none" /><path d="M 79.18660465613746 102.79330883721812 l -6.798936507109112 0.9124666646277406 a27.85989307801207,27.85989307801207 0 0,0 -0.05969776862165362,-0.47584995307305 l 6.813635784977613 -0.7952989572672821" fill="red" stroke="none" /><path d="M 79.1416061653843 102.43462659150553 l -10.953337690776602 1.2784918828912235 a32.02769912823187,32.02769912823187 0 0,0 -0.059201979446415635,-0.5481368032501949 l 10.973721971724068 -1.0897587577562466" fill="red" stroke="none" /><path d="M 79.10278846688536 102.07522291339032 l -22.864742933422527 2.2706110032444866 a43.977209224349906,43.977209224349906 0 0,0 -0.06832258121675915,-0.7539339904980781 l 22.900440110916364 -1.8766956241978423" fill="red" stroke="none" /><path d="M 79.07016306316243 101.71520430193888 l -33.625207627811456 2.7555924563989764 a54.73792936442889,54.73792936442889 0 0,0 -0.06887449835222582,-0.9397378089723529 l 33.66765868482802 -2.176381510929863" fill="red" stroke="none" /><path d="M 79.04373962182676 101.35467743843564 l -11.847329266585364 0.7658479792452593 a32.87205685120334,32.87205685120334 0 0,0 -0.031641153466444576,-0.5649740504680353 l 11.85875677093934 -0.5618022124417864" fill="red" stroke="none" /><path d="M 79.0235259727143 100.99374915477108 l -21.496157926702477 1.0183688994966122 a42.5202667461441,42.5202667461441 0 0,0 -0.02834252595447747,-0.7313946577019704 l 21.510502585508153 -0.648196994780645" fill="red" stroke="none" /><path d="M 79.0095281055655 100.63252640178507 l -21.236020220745974 0.6399257494551641 a42.24565978690113,42.24565978690113 0 0,0 -0.01564686160252468,-0.7270481755072136 l 21.243889145033506 -0.27428775815782175" fill="red" stroke="none" /><line stroke="#e1ed5e" stroke-width="0.3" x1="15.007084014347285" x2="10.007500721073583" y1="101.09737516637583" y2="101.16192664675087" /><path d="M 14.007167355692545 101.11028546245083 a86.0,86.0 0 0,1 10.666146001902534,-42.60595125391555" fill="none" id="id46" stroke="none" /><text fill="#e1ed5e" style="font-size:6.75px; font-family:Arial;" text-anchor="middle"><textPath startOffset="22.20632615414155" xlink:href="#id46">October</textPath></text><path d="M 79.00175016825051 100.2711162175752 l -21.892799369138874 0.28266607953769773 a42.89462409656509,42.89462409656509 0 0,0 -0.003177680141560746,-0.7383809546154531 l 21.894421346569935 0.09422435328143064" fill="red" stroke="none" /><path d="M 79.03285615573316 98.82574320788736 l -20.794708965955923 -1.1645996433584958 a41.82729491096043,41.82729491096043 0 0,0 0.04644703796227208,-0.7185151193307192 l 20.771581336989236 1.5223738269422267" fill="red" stroke="none" /><path d="M 79.05617556472873 98.46500227214037 l -21.39891293843317 -1.568351703896222 a42.45630914238879,42.45630914238879 0 0,0 0.059692592502287346,-0.7284008243203258 l 21.368745862111385 1.9364664454243263" fill="red" stroke="none" /><path d="M 79.21141760316559 97.0276538004421 l -12.705144813146166 -1.8165783591832767 a33.83435474256762,33.83435474256762 0 0,0 0.08739592114610896,-0.5758299246016427 l 12.671992998560755 2.0350073961770114" fill="red" stroke="none" /><path d="M 79.3925641242962 95.95851677861259 l -20.67518813768245 -4.054770640144859 a42.069042917815366,42.069042917815366 0 0,0 0.1454801674701935,-0.709412962814525 l 20.60232867429726 4.410059259122787" fill="red" stroke="none" /><path d="M 79.62865764111835 94.90015583598534 l -20.272111563358823 -5.075002325684987 a41.897706951791974,41.897706951791974 0 0,0 0.18116502273550644,-0.6981027344637252 l 20.181750208753012 5.423201485697576" fill="red" stroke="none" /><path d="M 80.02781315780177 93.51064311812611 l -20.675700092302478 -6.71794219339359 a42.73971760673571,42.73971760673571 0 0,0 0.23336436591516874,-0.6977297509092094 l 20.556998432615536 7.072845047225122" fill="red" stroke="none" /><path d="M 80.14247586403 93.16781622104843 l -20.33506052780998 -6.9964850467152715 a42.50501080396394,42.50501080396394 0 0,0 0.2439927667887435,-0.6898004081311168 l 20.211614680211426 7.345483081272999" fill="red" stroke="none" /><path d="M 80.52162464483688 92.15188598940014 l -19.28825038895149 -7.771509962064828 a41.795022725579315,41.795022725579315 0 0,0 0.2746098443918277,-0.6649895200522764 l 19.151618857673462 8.102374052570415" fill="red" stroke="none" /><path d="M 80.65960295795068 91.81776055985345 l -25.47478737498829 -10.777483499216197 a48.660783473660686,48.660783473660686 0 0,0 0.3330003167380376,-0.768610643014263 l 25.28549634840757 11.21439328681706" fill="red" stroke="none" /><path d="M 80.95270993114464 91.15688171328213 l -20.82148673805496 -9.66682764132507 a43.956085612100445,43.956085612100445 0 0,0 0.32452528118793583,-0.6835330064469276 l 20.652003263025275 10.023803063412531" fill="red" stroke="none" /><path d="M 81.10775173730289 90.83032412892265 l -19.360824161694598 -9.397107199263383 a42.52085351315103,42.52085351315103 0 0,0 0.32526425512201973,-0.6557128904321051 l 19.196199893619166 9.728979678194449" fill="red" stroke="none" /><path d="M 81.43458229118936 90.18545643968196 l -35.76879276718259 -18.909048006331776 a61.459345428805605,61.459345428805605 0 0,0 0.5024796113076266,-0.931018406325787 l 35.438005056656486 19.521947395990036" fill="red" stroke="none" /><path d="M 81.6062741919709 89.86733742301443 l -18.684446997733914 -10.292813910652441 a42.331914536919754,42.331914536919754 0 0,0 0.35708453284177183,-0.6352135393626106 l 18.504504823599714 10.612910959949836" fill="red" stroke="none" /><line stroke="#e1ed5e" stroke-width="0.3" x1="26.266209847984243" x2="21.928928074336255" y1="57.711370442889674" y2="55.22380399835377" /><path d="M 25.398753493254645 57.213857153982495 a86.0,86.0 0 0,1 29.58750427330803,-30.492523968695096" fill="none" id="id47" stroke="none" /><text fill="#e1ed5e" style="font-size:6.75px; font-family:Arial;" text-anchor="middle"><textPath startOffset="21.46611528233685" xlink:href="#id47">November</textPath></text><path d="M 81.78341655067845 89.55222093294921 l -21.72287874739619 -12.45874883643898 a46.0420423217346,46.0420423217346 0 0,0 0.4002156854028813,-0.6840983381740292 l 21.505203387522986 12.830826586966902" fill="red" stroke="none" /><path d="M 82.15384107792192 88.93136811851018 l -18.19205208127677 -11.28316342669305 a42.40702071380672,42.40702071380672 0 0,0 0.39008886320634745,-0.6170269015493158 l 17.99513562182446 11.594637975956582" fill="red" stroke="none" /><path d="M 82.34701348167596 88.62581576622439 l -18.000068093282902 -11.597816069308545 a42.41288838387602,42.41288838387602 0 0,0 0.40070760759761825,-0.6103051773399417 l 17.797763850327364 11.905939310626152" fill="red" stroke="none" /><path d="M 82.7489923806493 88.02491185347247 l -17.24891888621745 -11.973638215953189 a41.99745734296997,41.99745734296997 0 0,0 0.4173494927525134,-0.590311260051951 l 17.040256773661056 12.268775976336928" fill="red" stroke="none" /><line stroke="#e1ed5e" stroke-width="0.3" x1="56.762969772571076" x2="54.21961505331055" y1="26.818313649435495" y2="22.513508569990535" /><path d="M 56.25429882871897 25.957352633546506 a86.0,86.0 0 0,1 42.265352541879196,-11.944610805530505" fill="none" id="id48" stroke="none" /><text fill="#e1ed5e" style="font-size:6.75px; font-family:Arial;" text-anchor="middle"><textPath startOffset="22.20632615414155" xlink:href="#id48">December</textPath></text></svg>