<?xml version="1.0" encoding="utf-8" ?>
<svg baseProfile="full" height="200mm" version="1.1" viewBox="0,0,200,200" width="200mm" xmlns="http://www.w3.org/2000/svg" xmlns:ev="http://www.w3.org/2001/xml-events" xmlns:xlink="http://www.w3.org/1999/xlink"><defs /><rect fill="#1a1a1a" height="200" width="200" x="0" y="0" /><rect fill="#1a1a1a" height="200" width="180" x="10" y="0" /><text alignment-baseline="middle" fill="#e1ed5e" style="dominant-baseline: central; font-size:9.0px; font-family:Arial;" text-anchor="middle" x="100.0" y="100.0">2026</text><line stroke="#e1ed5e" stroke-width="0.3" x1="100.0" x2="100.0" y1="15.0" y2="10.0" /><path d="M 100.0 14.0 a86.0,86.0 0 0,1 42.46469731375804,11.215312516191453" fill="none" id="id49" stroke="none" /><text fill="#e1ed5e" style="font-size:6.75px; font-family:Arial;" text-anchor="middle"><textPath startOffset="22.20632615414155" xlink:href="#id49">January</textPath></text><path d="M 100.36148047927253 79.00311137660856 l 1.0526822312691955 -61.14590644082469 a82.15496720913286,82.15496720913286 0 0,0 1.4137436636104592,0.03651282788097451 l -2.1050525300745226 61.118726820801356" fill="red" stroke="none" /><path d="M 100.72285384407766 79.0124445844662 l 1.7793431511137516 -51.66198297651758 a72.69261598251154,72.69261598251154 0 0,0 1.2501716514136116,0.05383502111579571 l -2.668355634916695 51.62370022887759" fill="red" stroke="none" /><path d="M 101.08401301168833 79.027996857942 l 2.6619799728367757 -51.500352627205814 a72.56910371629827,72.56910371629827 0 0,0 1.2469374620254654,0.07521867294787803 l -3.548079483701853 51.446900684877626" fill="red" stroke="none" /><path d="M 101.44485096284872 79.0497635885617 l 3.5304819720616196 -51.19173801509677 a72.31333495263542,72.31333495263542 0 0,0 1.2410683503265203,0.09633078978941524 l -4.411140511750481 51.12338196311889" fill="red" stroke="none" /><path d="M 102.16513564639614 79.11191278185805 l 3.8600779674523773 -37.23999712774642 a58.439519067282006,58.439519067282006 0 0,0 0.9996867180879039,0.11232645079940387 l -4.500531389050007 37.16803472347642" fill="red" stroke="none" /><path d="M 104.307194497241 79.44645832069477 l 10.480655613276843 -50.01273848021369 a72.09910128734515,72.09910128734515 0 0,0 1.2124915334103656,0.2650036866096042 l -11.339989870840736 49.82492129550822" fill="red" stroke="none" /><path d="M 104.66035177308747 79.52364482259891 l 11.445021220874407 -50.2864013152078 a72.5723828030119,72.5723828030119 0 0,0 1.215678345275614,0.2877117873346889 l -12.308923253112544 50.08194361573224" fill="red" stroke="none" /><path d="M 105.36241919743992 79.69619591428918 l 13.319059167658487 -50.4301431852313 a73.15933932475103,73.15933932475103 0 0,0 1.2148007640733076,0.3320509381859518 l -14.185157820955506 50.19340570621906" fill="red" stroke="none" /><path d="M 105.71112130821622 79.79150937346287 l 14.065065537643143 -49.768465724967754 a72.71775564731601,72.71775564731601 0 0,0 1.2016082168960074,0.35078238877878565 l -14.919663972262578 49.51898500727027" fill="red" stroke="none" /><path d="M 106.40334571778207 80.00007090966166 l 15.837165506310162 -49.46510794170673 a72.93854748603351,72.93854748603351 0 0,0 1.1924312510782116,0.3931258356135706 l -16.686279579630792 49.18516838183392" fill="red" stroke="none" /><path d="M 107.08798089147638 80.2323363322302 l 17.9532340870332 -50.0697587387669 a74.19115861063881,74.19115861063881 0 0,0 1.1984262986732754,0.4413905197369461 l -18.81244271147905 49.75330495122363" fill="red" stroke="none" /><path d="M 108.09893153111575 80.62456947434976 l 24.296794593347244 -58.12629157695072 a84.0,84.0 0 0,0 1.329264968838739,0.5691218881488367 l -25.2937433199763 57.69945016083909" fill="red" stroke="none" /><path d="M 108.76106565485865 80.91482961587045 l 21.679373852143897 -47.226508747820226 a72.96478017974252,72.96478017974252 0 0,0 1.1369364705974756,0.5338069175991959 l -22.48908853404097 46.84633684758103" fill="red" stroke="none" /><path d="M 110.36928655335952 81.73862282372117 l 9.635459566802849 -16.96903258586901 a40.51384503279087,40.51384503279087 0 0,0 0.6034696717452529,0.34956858514692846 l -9.92612597101343 16.80065984333203" fill="red" stroke="none" /><line stroke="#e1ed5e" stroke-width="0.3" x1="143.23703022742887" x2="145.7803849466894" y1="26.81831364943548" y2="22.513508569990506" /><path d="M 143.74570117128098 25.957352633546492 a86.0,86.0 0 0,1 28.547481713284135,27.462654790039103" fill="none" id="id50" stroke="none" /><text fill="#e1ed5e" style="font-size:6.75px; font-family:Arial;" text-anchor="middle"><textPath startOffset="19.985693538727396" xlink:href="#id50">February</textPath></text><line stroke="#e1ed5e" stroke-width="0.3" x1="172.23445277983987" x2="176.4835382374775" y1="55.19839476539836" y2="52.563006222186495" /><path d="M 173.08426987136738 54.67131705675599 a86.0,86.0 0 0,1 12.851231095245387,41.99856678651699" fill="none" id="id51" stroke="none" /><text fill="#e1ed5e" style="font-size:6.75px; font-family:Arial;" text-anchor="middle"><textPath startOffset="22.20632615414155" xlink:href="#id51">March</textPath></text><line stroke="#e1ed5e" stroke-width="0.3" x1="184.98032266829074" x2="189.97916517819016" y1="98.17113171792111" y2="98.06355123074" /><path d="M 185.9800911702706 98.14961562048488 a86.0,86.0 0 0,1 -9.607161424134198,41.387399972396054" fill="none" id="id52" stroke="none" /><text fill="#e1ed5e" style="font-size:6.75px; font-family:Arial;" text-anchor="middle"><textPath startOffset="21.466115282336823" xlink:href="#id52">April</textPath></text><line stroke="#e1ed5e" stroke-width="0.3" x1="174.80103733775053" x2="179.2010983576182" y1="140.37084112569926" y2="142.7455964860345" /><path d="M 175.68104954172406 140.8457921977663 a86.0,86.0 0 0,1 -30.038265399797805,32.042727171017184" fill="none" id="id53" stroke="none" /><text fill="#e1ed5e" style="font-size:6.75px; font-family:Arial;" text-anchor="middle"><textPath startOffset="22.206326154141568" xlink:href="#id53">May</textPath></text><line stroke="#e1ed5e" stroke-width="0.3" x1="143.8653032363475" x2="146.44561519142675" y1="172.8068346515853" y2="177.08958963109032" /><path d="M 144.38136562736335 173.6633856474863 a86.0,86.0 0 0,1 -40.68145358897372,12.25698825130547" fill="none" id="id54" stroke="none" /><text fill="#e1ed5e" style="font-size:6.75px; font-family:Arial;" text-anchor="middle"><textPath startOffset="21.466115282336833" xlink:href="#id54">June</textPath></text><line stroke="#e1ed5e" stroke-width="0.3" x1="102.19456741930631" x2="102.32365962044197" y1="184.97166512339345" y2="189.96999836594603" /><path d="M 102.22038585953345 185.97133177190398 a86.0,86.0 0 0,1 -42.740103519485714,-10.115201625700543" fill="none" id="id55" stroke="none" /><text fill="#e1ed5e" style="font-size:6.75px; font-family:Arial;" text-anchor="middle"><textPath startOffset="22.20632615414155" xlink:href="#id55">July</textPath></text><line stroke="#e1ed5e" stroke-width="0.3" x1="58.666819895761336" x2="56.23545636021788" y1="174.27360380694188" y2="178.64263932499728" /><path d="M 58.180547188652646 175.14741091055294 a86.0,86.0 0 0,1 -31.652253787137756,-30.449443065178592" fill="none" id="id56" stroke="none" /><text fill="#e1ed5e" style="font-size:6.75px; font-family:Arial;" text-anchor="middle"><textPath startOffset="22.20632615414155" xlink:href="#id56">August</textPath></text><line stroke="#e1ed5e" stroke-width="0.3" x1="26.63291911575756" x2="22.317208475507996" y1="142.92168965132927" y2="145.44649492493687" /><path d="M 25.769776987707644 143.4266507060508 a86.0,86.0 0 0,1 -11.730757126820373,-40.83630448921669" fill="none" id="id57" stroke="none" /><text fill="#e1ed5e" style="font-size:6.75px; font-family:Arial;" text-anchor="middle"><textPath startOffset="21.46611528233685" xlink:href="#id57">September</textPath></text><line stroke="#e1ed5e" stroke-width="0.3" x1="15.007084014347285" x2="10.007500721073583" y1="101.09737516637583" y2="101.16192664675087" /><path d="M 14.007167355692545 101.11028546245083 a86.0,86.0 0 0,1 10.666146001902534,-42.60595125391555" fill="none" id="id58" stroke="none" /><text fill="#e1ed5e" style="font-size:6.75px; font-family:Arial;" text-anchor="middle"><textPath startOffset="22.20632615414155" xlink:href="#id58">October</textPath></text><line stroke="#e1ed5e" stroke-width="0.3" x1="26.266209847984243" x2="21.928928074336255" y1="57.711370442889674" y2="55.22380399835377" /><path d="M 25.398753493254645 57.213857153982495 a86.0,86.0 0 0,1 29.58750427330803,-30.492523968695096" fill="none" id="id59" stroke="none" /><text fill="#e1ed5e" style="font-size:6.75px; font-family:Arial;" text-anchor="middle"><textPath startOffset="21.46611528233685" xlink:href="#id59">November</textPath></text><line stroke="#e1ed5e" stroke-width="0.3" x1="56.762969772571076" x2="54.21961505331055" y1="26.818313649435495" y2="22.513508569990535" /><path d="M 56.25429882871897 25.957352633546506 a86.0,86.0 0 0,1 42.265352541879196,-11.944610805530505" fill="none" id="id60" stroke="none" /><text fill="#e1ed5e" style="font-size:6.75px; font-family:Arial;" text-anchor="middle"><textPath startOffset="22.20632615414155" xlink:href="#id60">December</textPath></text></svg>